<svg xmlns="http://www.w3.org/2000/svg" viewBox="0 0 184.421 76.721"><title>Asset 1</title><circle cx="7.86" cy="7.86" r="7.36" fill="#8dc63f" stroke="#231f20" stroke-miterlimit="10"/><circle cx="64.094" cy="7.86" r="7.36" fill="#8dc63f" stroke="#231f20" stroke-miterlimit="10"/><circle cx="120.327" cy="7.86" r="7.36" fill="#8dc63f" stroke="#231f20" stroke-miterlimit="10"/><circle cx="176.561" cy="7.86" r="7.36" fill="#8dc63f" stroke="#231f20" stroke-miterlimit="10"/><circle cx="7.86" cy="68.749" r="7.36" fill="#8dc63f" stroke="#231f20" stroke-miterlimit="10"/><circle cx="64.094" cy="68.749" r="7.36" fill="#8dc63f" stroke="#231f20" stroke-miterlimit="10"/><circle cx="120.327" cy="68.86" r="7.36" fill="#8dc63f" stroke="#231f20" stroke-miterlimit="10"/><circle cx="176.561" cy="68.86" r="7.36" fill="#8dc63f" stroke="#231f20" stroke-miterlimit="10"/><line x1="15.221" y1="7.86" x2="56.734" y2="7.86" fill="none" stroke="#231f20" stroke-miterlimit="10" stroke-width="2"/><line x1="7.86" y1="15.221" x2="7.86" y2="61.388" fill="none" stroke="#231f20" stroke-miterlimit="10" stroke-width="2"/><line x1="15.221" y1="68.749" x2="56.734" y2="68.749" fill="none" stroke="#231f20" stroke-miterlimit="10" stroke-width="2"/><line x1="64.094" y1="15.221" x2="64.094" y2="61.388" fill="none" stroke="#231f20" stroke-miterlimit="10" stroke-width="2"/><line x1="71.454" y1="7.86" x2="112.967" y2="7.86" fill="none" stroke="#231f20" stroke-miterlimit="10" stroke-width="2"/><line x1="127.688" y1="7.86" x2="169.201" y2="7.86" fill="none" stroke="#231f20" stroke-miterlimit="10" stroke-width="2"/><line x1="127.688" y1="68.86" x2="169.201" y2="68.86" fill="none" stroke="#231f20" stroke-miterlimit="10" stroke-width="2"/><line x1="112.967" y1="68.86" x2="71.454" y2="68.749" fill="none" stroke="#231f20" stroke-miterlimit="10" stroke-width="2"/><line x1="120.327" y1="15.221" x2="120.327" y2="61.5" fill="none" stroke="#231f20" stroke-miterlimit="10" stroke-width="2"/><line x1="176.561" y1="15.221" x2="176.561" y2="61.5" fill="none" stroke="#231f20" stroke-miterlimit="10" stroke-width="2"/></svg>