<svg xmlns="http://www.w3.org/2000/svg" viewBox="0 0 184.421 76.721"><title>Asset 2</title><circle cx="7.86" cy="7.86" r="7.36" fill="#8dc63f" stroke="#231f20" stroke-miterlimit="10"/><circle cx="64.094" cy="7.86" r="7.36" fill="#53e8f4" stroke="#231f20" stroke-miterlimit="10"/><circle cx="120.327" cy="7.86" r="7.36" fill="#8dc63f" stroke="#231f20" stroke-miterlimit="10"/><circle cx="176.561" cy="7.86" r="7.36" fill="#53e8f4" stroke="#231f20" stroke-miterlimit="10"/><circle cx="7.86" cy="68.749" r="7.36" fill="#f26522" stroke="#231f20" stroke-miterlimit="10"/><circle cx="64.094" cy="68.749" r="7.36" fill="#6e38a5" stroke="#231f20" stroke-miterlimit="10"/><circle cx="120.327" cy="68.86" r="7.36" fill="#f26522" stroke="#231f20" stroke-miterlimit="10"/><circle cx="176.561" cy="68.86" r="7.36" fill="#6e38a5" stroke="#231f20" stroke-miterlimit="10"/><line x1="15.221" y1="7.86" x2="56.734" y2="7.86" fill="none" stroke="#231f20" stroke-miterlimit="10" stroke-width="2"/><line x1="7.86" y1="15.221" x2="7.86" y2="61.388" fill="none" stroke="#231f20" stroke-miterlimit="10" stroke-width="2"/><line x1="15.221" y1="68.749" x2="56.734" y2="68.749" fill="none" stroke="#231f20" stroke-miterlimit="10" stroke-width="2"/><line x1="64.094" y1="15.221" x2="64.094" y2="61.388" fill="none" stroke="#231f20" stroke-miterlimit="10" stroke-width="2"/><line x1="71.454" y1="7.86" x2="112.967" y2="7.86" fill="none" stroke="#231f20" stroke-miterlimit="10" stroke-width="2"/><line x1="127.688" y1="7.86" x2="169.201" y2="7.86" fill="none" stroke="#231f20" stroke-miterlimit="10" stroke-width="2"/><line x1="127.688" y1="68.86" x2="169.201" y2="68.86" fill="none" stroke="#231f20" stroke-miterlimit="10" stroke-width="2"/><line x1="112.967" y1="68.86" x2="71.454" y2="68.749" fill="none" stroke="#231f20" stroke-miterlimit="10" stroke-width="2"/><line x1="120.327" y1="15.221" x2="120.327" y2="61.5" fill="none" stroke="#231f20" stroke-miterlimit="10" stroke-width="2"/><line x1="176.561" y1="15.221" x2="176.561" y2="61.5" fill="none" stroke="#231f20" stroke-miterlimit="10" stroke-width="2"/><line x1="12.647" y1="63.164" x2="59.404" y2="13.532" fill="none" stroke="#231f20" stroke-miterlimit="10" stroke-width="2"/><line x1="13.344" y1="12.758" x2="58.77" y2="63.675" fill="none" stroke="#231f20" stroke-miterlimit="10" stroke-width="2"/><line x1="69.412" y1="63.666" x2="115.509" y2="13.416" fill="none" stroke="#231f20" stroke-miterlimit="10" stroke-width="2"/><line x1="69.235" y1="13.124" x2="115.351" y2="63.448" fill="none" stroke="#231f20" stroke-miterlimit="10" stroke-width="2"/><line x1="125.503" y1="63.628" x2="171.358" y2="13.067" fill="none" stroke="#231f20" stroke-miterlimit="10" stroke-width="2"/><line x1="125.819" y1="12.749" x2="171.822" y2="63.232" fill="none" stroke="#231f20" stroke-miterlimit="10" stroke-width="2"/></svg>